# Blender v2.83.9 OBJ File: 'room.blend'
# www.blender.org
mtllib elev_room.mtl
o Cylinder.001_Cylinder.006
v -4.666890 -2.500000 4.666891
v -4.666890 2.500000 4.666891
v -5.487686 -2.500000 3.666757
v -5.487686 2.500000 3.666757
v -6.097591 -2.500000 2.525704
v -6.097591 2.500000 2.525704
v -6.473176 -2.500000 1.287587
v -6.473176 2.500000 1.287587
v -6.600000 -2.500000 0.000001
v -6.600000 2.500000 0.000001
v -6.473176 -2.500000 -1.287585
v -6.473176 2.500000 -1.287585
v -6.097591 -2.500000 -2.525702
v -6.097591 2.500000 -2.525702
v -5.487687 -2.500000 -3.666756
v -5.487687 2.500000 -3.666756
v -4.666891 -2.500000 -4.666890
v -4.666891 2.500000 -4.666890
v -3.666757 -2.500000 -5.487686
v -3.666757 2.500000 -5.487686
v -2.525703 -2.500000 -6.097592
v -2.525703 2.500000 -6.097592
v -1.287586 -2.500000 -6.473176
v -1.287586 2.500000 -6.473176
v 0.000001 -2.500000 -6.600000
v 0.000001 2.500000 -6.600000
v 1.287588 -2.500000 -6.473175
v 1.287588 2.500000 -6.473175
v 2.525706 -2.500000 -6.097590
v 2.525706 2.500000 -6.097590
v 3.666759 -2.500000 -5.487685
v 3.666759 2.500000 -5.487685
v 4.666893 -2.500000 -4.666889
v 4.666893 2.500000 -4.666889
v 5.487688 -2.500000 -3.666754
v 5.487688 2.500000 -3.666754
v 6.097593 -2.500000 -2.525700
v 6.097593 2.500000 -2.525700
v 6.473177 -2.500000 -1.287582
v 6.473177 2.500000 -1.287582
v 6.599982 -2.500000 0.000005
v 6.599982 2.500000 0.000005
v 6.473175 -2.500000 1.287592
v 6.473175 2.500000 1.287592
v 6.097589 -2.500000 2.525710
v 6.097589 2.500000 2.525710
v 5.487682 -2.500000 3.666763
v 5.487682 2.500000 3.666763
v 4.666886 -2.500000 4.666895
v 4.666886 2.500000 4.666895
v -4.242640 -2.500000 4.242641
v -4.242640 2.500000 4.242641
v -4.988818 -2.500000 3.333422
v -4.988818 2.500000 3.333422
v -5.543277 -2.500000 2.296101
v -5.543277 2.500000 2.296101
v -5.884712 -2.500000 1.170543
v -5.884712 2.500000 1.170543
v -6.000000 -2.500000 0.000001
v -6.000000 2.500000 0.000001
v -5.884712 -2.500000 -1.170541
v -5.884712 2.500000 -1.170541
v -5.543277 -2.500000 -2.296099
v -5.543277 2.500000 -2.296099
v -4.988819 -2.500000 -3.333421
v -4.988819 2.500000 -3.333421
v -4.242641 -2.500000 -4.242640
v -4.242641 2.500000 -4.242640
v -3.333422 -2.500000 -4.988818
v -3.333422 2.500000 -4.988818
v -2.296100 -2.500000 -5.543278
v -2.296100 2.500000 -5.543278
v -1.170541 -2.500000 -5.884712
v -1.170541 2.500000 -5.884712
v 0.000001 -2.500000 -6.000000
v 0.000001 2.500000 -6.000000
v 1.170544 -2.500000 -5.884711
v 1.170544 2.500000 -5.884711
v 2.296103 -2.500000 -5.543276
v 2.296103 2.500000 -5.543276
v 3.333424 -2.500000 -4.988817
v 3.333424 2.500000 -4.988817
v 4.242643 -2.500000 -4.242639
v 4.242643 2.500000 -4.242639
v 4.988820 -2.500000 -3.333419
v 4.988820 2.500000 -3.333419
v 5.543279 -2.500000 -2.296097
v 5.543279 2.500000 -2.296097
v 5.884713 -2.500000 -1.170537
v 5.884713 2.500000 -1.170537
v 6.000000 -2.500000 0.000005
v 6.000000 2.500000 0.000005
v 5.884711 -2.500000 1.170548
v 5.884711 2.500000 1.170548
v 5.543274 -2.500000 2.296106
v 5.543274 2.500000 2.296106
v 4.988814 -2.500000 3.333427
v 4.988814 2.500000 3.333427
v 4.242636 -2.500000 4.242646
v 4.242636 2.500000 4.242646
v -3.725690 2.500000 4.666892
v 3.725685 2.500000 4.666895
v -4.666890 2.500000 4.666891
v -3.725690 -2.500000 4.666892
v 3.725685 -2.500000 4.666895
v -3.725690 2.500000 4.666892
v -4.666890 -2.500000 4.666891
vt 0.875000 1.000000
vt 0.843750 0.000000
vt 0.875000 0.000000
vt 0.843750 1.000000
vt 0.812500 0.000000
vt 0.812500 1.000000
vt 0.781250 0.000000
vt 0.781250 1.000000
vt 0.750000 0.000000
vt 0.750000 1.000000
vt 0.718750 0.000000
vt 0.718750 1.000000
vt 0.687500 0.000000
vt 0.687500 1.000000
vt 0.656250 0.000000
vt 0.656250 1.000000
vt 0.625000 0.000000
vt 0.625000 1.000000
vt 0.593750 0.000000
vt 0.593750 1.000000
vt 0.562500 0.000000
vt 0.562500 1.000000
vt 0.531250 0.000000
vt 0.531250 1.000000
vt 0.500000 0.000000
vt 0.500000 1.000000
vt 0.468750 0.000000
vt 0.468750 1.000000
vt 0.437500 0.000000
vt 0.437500 1.000000
vt 0.406250 0.000000
vt 0.406250 1.000000
vt 0.375000 0.000000
vt 0.375000 1.000000
vt 0.343750 0.000000
vt 0.343750 1.000000
vt 0.312500 0.000000
vt 0.312500 1.000000
vt 0.281250 0.000000
vt 0.281250 1.000000
vt 0.250000 0.000000
vt 0.250000 1.000000
vt 0.218750 0.000000
vt 0.218750 1.000000
vt 0.187500 0.000000
vt 0.187500 1.000000
vt 0.156250 0.000000
vt 0.156250 1.000000
vt 0.125000 0.000000
vt 0.843750 0.000000
vt 0.875000 1.000000
vt 0.875000 0.000000
vt 0.812500 0.000000
vt 0.843750 1.000000
vt 0.781250 0.000000
vt 0.812500 1.000000
vt 0.750000 0.000000
vt 0.781250 1.000000
vt 0.718750 0.000000
vt 0.750000 1.000000
vt 0.687500 0.000000
vt 0.718750 1.000000
vt 0.656250 0.000000
vt 0.687500 1.000000
vt 0.625000 0.000000
vt 0.656250 1.000000
vt 0.593750 0.000000
vt 0.625000 1.000000
vt 0.562500 0.000000
vt 0.593750 1.000000
vt 0.531250 0.000000
vt 0.562500 1.000000
vt 0.500000 0.000000
vt 0.531250 1.000000
vt 0.468750 0.000000
vt 0.500000 1.000000
vt 0.437500 0.000000
vt 0.468750 1.000000
vt 0.406250 0.000000
vt 0.437500 1.000000
vt 0.375000 0.000000
vt 0.406250 1.000000
vt 0.343750 0.000000
vt 0.375000 1.000000
vt 0.312500 0.000000
vt 0.343750 1.000000
vt 0.281250 0.000000
vt 0.312500 1.000000
vt 0.250000 0.000000
vt 0.281250 1.000000
vt 0.218750 0.000000
vt 0.250000 1.000000
vt 0.187500 0.000000
vt 0.218750 1.000000
vt 0.156250 0.000000
vt 0.187500 1.000000
vt 0.125000 0.000000
vt 0.156250 1.000000
vt 0.107232 0.000000
vt 0.125000 1.000000
vt 0.125000 1.000000
vt 0.892768 0.000000
vt 0.892768 1.000000
vt 0.107232 1.000000
vt 0.000000 0.000000
vt 0.000000 0.000000
vt 0.000000 0.000000
vn -0.7730 0.0000 0.6344
vn -0.8819 0.0000 0.4714
vn -0.9569 0.0000 0.2903
vn -0.9952 0.0000 0.0980
vn -0.9952 0.0000 -0.0980
vn -0.9569 0.0000 -0.2903
vn -0.8819 0.0000 -0.4714
vn -0.7730 0.0000 -0.6344
vn -0.6344 0.0000 -0.7730
vn -0.4714 0.0000 -0.8819
vn -0.2903 0.0000 -0.9569
vn -0.0980 0.0000 -0.9952
vn 0.0980 0.0000 -0.9952
vn 0.2903 0.0000 -0.9569
vn 0.4714 0.0000 -0.8819
vn 0.6344 0.0000 -0.7730
vn 0.7730 0.0000 -0.6344
vn 0.8819 0.0000 -0.4714
vn 0.9569 0.0000 -0.2903
vn 0.9952 0.0000 -0.0980
vn 0.9952 0.0000 0.0980
vn 0.9569 0.0000 0.2903
vn 0.8819 0.0000 0.4714
vn 0.7730 0.0000 0.6344
vn 0.6344 0.0000 0.7730
vn 0.4714 0.0000 0.8819
vn 0.2903 0.0000 0.9569
vn 0.0980 0.0000 0.9952
vn -0.0980 0.0000 0.9952
vn -0.2903 0.0000 0.9569
vn -0.4714 0.0000 0.8819
vn -0.6344 0.0000 0.7730
vn 0.0000 -1.0000 0.0000
vn 0.0000 1.0000 0.0000
vn -0.0000 0.0000 1.0000
usemtl None
s off
f 2/1/1 3/2/1 1/3/1
f 4/4/2 5/5/2 3/2/2
f 6/6/3 7/7/3 5/5/3
f 8/8/4 9/9/4 7/7/4
f 10/10/5 11/11/5 9/9/5
f 12/12/6 13/13/6 11/11/6
f 14/14/7 15/15/7 13/13/7
f 16/16/8 17/17/8 15/15/8
f 18/18/9 19/19/9 17/17/9
f 20/20/10 21/21/10 19/19/10
f 22/22/11 23/23/11 21/21/11
f 24/24/12 25/25/12 23/23/12
f 26/26/13 27/27/13 25/25/13
f 28/28/14 29/29/14 27/27/14
f 30/30/15 31/31/15 29/29/15
f 32/32/16 33/33/16 31/31/16
f 34/34/17 35/35/17 33/33/17
f 36/36/18 37/37/18 35/35/18
f 38/38/19 39/39/19 37/37/19
f 40/40/20 41/41/20 39/39/20
f 42/42/21 43/43/21 41/41/21
f 44/44/22 45/45/22 43/43/22
f 46/46/23 47/47/23 45/45/23
f 48/48/24 49/49/24 47/47/24
f 53/50/17 52/51/17 51/52/17
f 55/53/18 54/54/18 53/50/18
f 57/55/19 56/56/19 55/53/19
f 59/57/20 58/58/20 57/55/20
f 61/59/21 60/60/21 59/57/21
f 63/61/22 62/62/22 61/59/22
f 65/63/23 64/64/23 63/61/23
f 67/65/24 66/66/24 65/63/24
f 69/67/25 68/68/25 67/65/25
f 71/69/26 70/70/26 69/67/26
f 73/71/27 72/72/27 71/69/27
f 75/73/28 74/74/28 73/71/28
f 77/75/29 76/76/29 75/73/29
f 79/77/30 78/78/30 77/75/30
f 81/79/31 80/80/31 79/77/31
f 83/81/32 82/82/32 81/79/32
f 85/83/1 84/84/1 83/81/1
f 87/85/2 86/86/2 85/83/2
f 89/87/3 88/88/3 87/85/3
f 91/89/4 90/90/4 89/87/4
f 93/91/5 92/92/5 91/89/5
f 95/93/6 94/94/6 93/91/6
f 97/95/7 96/96/7 95/93/7
f 99/97/8 98/98/8 97/95/8
f 105/99/9 100/100/9 99/97/9
f 1/3/33 53/50/33 51/52/33
f 2/1/34 54/54/34 4/4/34
f 5/5/33 53/50/33 3/2/33
f 6/6/34 54/54/34 56/56/34
f 5/5/33 57/55/33 55/53/33
f 6/6/34 58/58/34 8/8/34
f 7/7/33 59/57/33 57/55/33
f 8/8/34 60/60/34 10/10/34
f 11/11/33 59/57/33 9/9/33
f 12/12/34 60/60/34 62/62/34
f 13/13/33 61/59/33 11/11/33
f 14/14/34 62/62/34 64/64/34
f 13/13/33 65/63/33 63/61/33
f 14/14/34 66/66/34 16/16/34
f 17/17/33 65/63/33 15/15/33
f 18/18/34 66/66/34 68/68/34
f 17/17/33 69/67/33 67/65/33
f 18/18/34 70/70/34 20/20/34
f 21/21/33 69/67/33 19/19/33
f 22/22/34 70/70/34 72/72/34
f 21/21/33 73/71/33 71/69/33
f 22/22/34 74/74/34 24/24/34
f 23/23/33 75/73/33 73/71/33
f 24/24/34 76/76/34 26/26/34
f 27/27/33 75/73/33 25/25/33
f 28/28/34 76/76/34 78/78/34
f 29/29/33 77/75/33 27/27/33
f 30/30/34 78/78/34 80/80/34
f 29/29/33 81/79/33 79/77/33
f 30/30/34 82/82/34 32/32/34
f 33/33/33 81/79/33 31/31/33
f 34/34/34 82/82/34 84/84/34
f 35/35/33 83/81/33 33/33/33
f 36/36/34 84/84/34 86/86/34
f 37/37/33 85/83/33 35/35/33
f 38/38/34 86/86/34 88/88/34
f 37/37/33 89/87/33 87/85/33
f 38/38/34 90/90/34 40/40/34
f 39/39/33 91/89/33 89/87/33
f 40/40/34 92/92/34 42/42/34
f 43/43/33 91/89/33 41/41/33
f 44/44/34 92/92/34 94/94/34
f 45/45/33 93/91/33 43/43/33
f 46/46/34 94/94/34 96/96/34
f 45/45/33 97/95/33 95/93/33
f 46/46/34 98/98/34 48/48/34
f 49/49/33 97/95/33 47/47/33
f 50/101/34 98/98/34 100/100/34
f 49/49/33 105/99/33 99/97/33
f 104/102/16 52/51/16 101/103/16
f 100/100/34 102/104/34 50/101/34
f 101/103/34 52/51/34 2/1/34
f 102/104/35 49/49/35 50/101/35
f 51/52/33 104/102/33 107/105/33
f 103/106/35 104/102/35 106/107/35
f 2/1/1 4/4/1 3/2/1
f 4/4/2 6/6/2 5/5/2
f 6/6/3 8/8/3 7/7/3
f 8/8/4 10/10/4 9/9/4
f 10/10/5 12/12/5 11/11/5
f 12/12/6 14/14/6 13/13/6
f 14/14/7 16/16/7 15/15/7
f 16/16/8 18/18/8 17/17/8
f 18/18/9 20/20/9 19/19/9
f 20/20/10 22/22/10 21/21/10
f 22/22/11 24/24/11 23/23/11
f 24/24/12 26/26/12 25/25/12
f 26/26/13 28/28/13 27/27/13
f 28/28/14 30/30/14 29/29/14
f 30/30/15 32/32/15 31/31/15
f 32/32/16 34/34/16 33/33/16
f 34/34/17 36/36/17 35/35/17
f 36/36/18 38/38/18 37/37/18
f 38/38/19 40/40/19 39/39/19
f 40/40/20 42/42/20 41/41/20
f 42/42/21 44/44/21 43/43/21
f 44/44/22 46/46/22 45/45/22
f 46/46/23 48/48/23 47/47/23
f 48/48/24 50/101/24 49/49/24
f 53/50/17 54/54/17 52/51/17
f 55/53/18 56/56/18 54/54/18
f 57/55/19 58/58/19 56/56/19
f 59/57/20 60/60/20 58/58/20
f 61/59/21 62/62/21 60/60/21
f 63/61/22 64/64/22 62/62/22
f 65/63/23 66/66/23 64/64/23
f 67/65/24 68/68/24 66/66/24
f 69/67/25 70/70/25 68/68/25
f 71/69/26 72/72/26 70/70/26
f 73/71/27 74/74/27 72/72/27
f 75/73/28 76/76/28 74/74/28
f 77/75/29 78/78/29 76/76/29
f 79/77/30 80/80/30 78/78/30
f 81/79/31 82/82/31 80/80/31
f 83/81/32 84/84/32 82/82/32
f 85/83/1 86/86/1 84/84/1
f 87/85/2 88/88/2 86/86/2
f 89/87/3 90/90/3 88/88/3
f 91/89/4 92/92/4 90/90/4
f 93/91/5 94/94/5 92/92/5
f 95/93/6 96/96/6 94/94/6
f 97/95/7 98/98/7 96/96/7
f 99/97/8 100/100/8 98/98/8
f 105/99/9 102/104/9 100/100/9
f 1/3/33 3/2/33 53/50/33
f 2/1/34 52/51/34 54/54/34
f 5/5/33 55/53/33 53/50/33
f 6/6/34 4/4/34 54/54/34
f 5/5/33 7/7/33 57/55/33
f 6/6/34 56/56/34 58/58/34
f 7/7/33 9/9/33 59/57/33
f 8/8/34 58/58/34 60/60/34
f 11/11/33 61/59/33 59/57/33
f 12/12/34 10/10/34 60/60/34
f 13/13/33 63/61/33 61/59/33
f 14/14/34 12/12/34 62/62/34
f 13/13/33 15/15/33 65/63/33
f 14/14/34 64/64/34 66/66/34
f 17/17/33 67/65/33 65/63/33
f 18/18/34 16/16/34 66/66/34
f 17/17/33 19/19/33 69/67/33
f 18/18/34 68/68/34 70/70/34
f 21/21/33 71/69/33 69/67/33
f 22/22/34 20/20/34 70/70/34
f 21/21/33 23/23/33 73/71/33
f 22/22/34 72/72/34 74/74/34
f 23/23/33 25/25/33 75/73/33
f 24/24/34 74/74/34 76/76/34
f 27/27/33 77/75/33 75/73/33
f 28/28/34 26/26/34 76/76/34
f 29/29/33 79/77/33 77/75/33
f 30/30/34 28/28/34 78/78/34
f 29/29/33 31/31/33 81/79/33
f 30/30/34 80/80/34 82/82/34
f 33/33/33 83/81/33 81/79/33
f 34/34/34 32/32/34 82/82/34
f 35/35/33 85/83/33 83/81/33
f 36/36/34 34/34/34 84/84/34
f 37/37/33 87/85/33 85/83/33
f 38/38/34 36/36/34 86/86/34
f 37/37/33 39/39/33 89/87/33
f 38/38/34 88/88/34 90/90/34
f 39/39/33 41/41/33 91/89/33
f 40/40/34 90/90/34 92/92/34
f 43/43/33 93/91/33 91/89/33
f 44/44/34 42/42/34 92/92/34
f 45/45/33 95/93/33 93/91/33
f 46/46/34 44/44/34 94/94/34
f 45/45/33 47/47/33 97/95/33
f 46/46/34 96/96/34 98/98/34
f 49/49/33 99/97/33 97/95/33
f 50/101/34 48/48/34 98/98/34
f 104/102/16 51/52/16 52/51/16
f 102/104/35 105/99/35 49/49/35
f 103/106/35 107/105/35 104/102/35
